<svg width="55" height="57" viewBox="0 0 55 57" fill="none" xmlns="http://www.w3.org/2000/svg">
<path opacity="0.15" d="M7.49396 54.0573C7.49396 54.7482 9.59471 55.4109 13.3341 55.8995C17.0734 56.388 22.1451 56.6625 27.4333 56.6625C32.7216 56.6625 37.7932 56.388 41.5326 55.8995C45.272 55.4109 47.3727 54.7482 47.3727 54.0573C47.3727 53.3664 45.272 52.7037 41.5326 52.2151C37.7932 51.7266 32.7216 51.4521 27.4333 51.4521C22.1451 51.4521 17.0734 51.7266 13.3341 52.2151C9.59471 52.7037 7.49396 53.3664 7.49396 54.0573Z" fill="#45413C"/>
<path d="M1 27.4333C1 30.9046 1.68372 34.3419 3.01212 37.5489C4.34052 40.756 6.28758 43.67 8.74214 46.1245C11.1967 48.5791 14.1107 50.5261 17.3177 51.8545C20.5248 53.1829 23.9621 53.8667 27.4333 53.8667C30.9046 53.8667 34.3419 53.1829 37.5489 51.8545C40.756 50.5261 43.67 48.5791 46.1245 46.1245C48.5791 43.67 50.5261 40.756 51.8545 37.5489C53.1829 34.3419 53.8667 30.9046 53.8667 27.4333C53.8667 23.9621 53.1829 20.5248 51.8545 17.3177C50.5261 14.1107 48.5791 11.1967 46.1245 8.74214C43.67 6.28758 40.756 4.34052 37.5489 3.01212C34.3419 1.68372 30.9046 1 27.4333 1C23.9621 1 20.5248 1.68372 17.3177 3.01212C14.1107 4.34052 11.1967 6.28758 8.74214 8.74214C6.28758 11.1967 4.34052 14.1107 3.01212 17.3177C1.68372 20.5248 1 23.9621 1 27.4333Z" fill="#FF8A14"/>
<path d="M50.0669 13.8228C50.9568 16.35 51.4123 19.0098 51.4139 21.6892C51.4139 28.0493 48.8874 34.1488 44.3902 38.6461C39.8929 43.1433 33.7934 45.6698 27.4333 45.6698C21.0733 45.6698 14.9737 43.1433 10.4765 38.6461C5.97922 34.1488 3.4527 28.0493 3.4527 21.6892C3.45433 19.0098 3.9098 16.35 4.79978 13.8228C2.70236 17.3131 1.4401 21.241 1.11155 25.2997C0.783 29.3585 1.39706 33.4383 2.90578 37.2205C4.4145 41.0027 6.77705 44.385 9.80894 47.1033C12.8408 49.8216 16.46 51.8023 20.3839 52.8908C24.3078 53.9792 28.4301 54.1459 32.4291 53.3779C36.428 52.6099 40.1954 50.928 43.4369 48.4634C46.6784 45.9988 49.3064 42.8184 51.1156 39.1703C52.9248 35.5223 53.8664 31.5054 53.8667 27.4334C53.8684 22.6344 52.5541 17.9269 50.0669 13.8228Z" fill="#EB6D00"/>
<path d="M1 27.4333C1 30.9046 1.68372 34.3419 3.01212 37.5489C4.34052 40.756 6.28758 43.67 8.74214 46.1245C11.1967 48.5791 14.1107 50.5261 17.3177 51.8545C20.5248 53.1829 23.9621 53.8667 27.4333 53.8667C30.9046 53.8667 34.3419 53.1829 37.5489 51.8545C40.756 50.5261 43.67 48.5791 46.1245 46.1245C48.5791 43.67 50.5261 40.756 51.8545 37.5489C53.1829 34.3419 53.8667 30.9046 53.8667 27.4333C53.8667 23.9621 53.1829 20.5248 51.8545 17.3177C50.5261 14.1107 48.5791 11.1967 46.1245 8.74214C43.67 6.28758 40.756 4.34052 37.5489 3.01212C34.3419 1.68372 30.9046 1 27.4333 1C23.9621 1 20.5248 1.68372 17.3177 3.01212C14.1107 4.34052 11.1967 6.28758 8.74214 8.74214C6.28758 11.1967 4.34052 14.1107 3.01212 17.3177C1.68372 20.5248 1 23.9621 1 27.4333Z" stroke="#45413C" stroke-width="0.5" stroke-linecap="round" stroke-linejoin="round"/>
<path d="M53.8158 25.6669C49.2027 18.7281 32.2117 16.0848 13.0602 20.1133C7.65917 21.2571 2.99521 24.3452 1 26.9377" stroke="#45413C" stroke-width="0.5" stroke-linecap="round" stroke-linejoin="round"/>
<path d="M19.8083 2.10565C16.3008 7.90065 14.509 16.86 15.4621 26.6963C16.7329 39.8113 22.439 50.4736 29.2506 53.8031" stroke="#45413C" stroke-width="0.5" stroke-linecap="round" stroke-linejoin="round"/>
<path d="M3.13499 37.8542C3.79379 34.9484 5.33398 32.3171 7.545 30.3199C9.75602 28.3227 12.5299 27.0571 15.4875 26.6962C28.7042 24.4342 37.6635 37.206 48.1225 43.9542" stroke="#45413C" stroke-width="0.5" stroke-linecap="round" stroke-linejoin="round"/>
<path d="M36.3292 2.55042C30.2546 7.35416 23.2904 12.4883 15.9958 13.9879C10.2263 15.2587 7.97688 12.8696 7.10001 10.5058" stroke="#45413C" stroke-width="0.5" stroke-linecap="round" stroke-linejoin="round"/>
</svg>
