<svg width="41" height="41" viewBox="0 0 41 41" fill="none" xmlns="http://www.w3.org/2000/svg">
<path d="M39 36.1538C39 36.9086 38.7 37.6327 38.1664 38.1664C37.6327 38.7 36.9086 39 36.1538 39H4.84615C4.0913 39 3.36738 38.7 2.83362 38.1664C2.29986 37.6327 2 36.9086 2 36.1538V14.5515C2.00314 13.8049 2.29957 13.0894 2.82538 12.5592L12.5592 2.82538C13.0894 2.29957 13.8049 2.00314 14.5515 2H36.1538C36.9086 2 37.6327 2.29986 38.1664 2.83362C38.7 3.36738 39 4.0913 39 4.84615V36.1538Z" stroke="#F7F6F6" stroke-width="3" stroke-linecap="round" stroke-linejoin="round"/>
<path d="M30.4616 39V26.1923C30.4616 25.8149 30.3116 25.4529 30.0449 25.1861C29.778 24.9192 29.4159 24.7692 29.0385 24.7692H11.9616C11.5842 24.7692 11.2222 24.9192 10.9554 25.1861C10.6885 25.4529 10.5385 25.8149 10.5385 26.1923V39" stroke="#F7F6F6" stroke-width="3" stroke-linecap="round" stroke-linejoin="round"/>
<path d="M30.4615 2V11.9615C30.4615 12.339 30.3115 12.7009 30.0448 12.9678C29.7779 13.2347 29.4158 13.3846 29.0384 13.3846H17.6538C17.2764 13.3846 16.9144 13.2347 16.6476 12.9678C16.3807 12.7009 16.2307 12.339 16.2307 11.9615V2" stroke="#F7F6F6" stroke-width="3" stroke-linecap="round" stroke-linejoin="round"/>
</svg>
